<mxfile host="Electron" agent="Mozilla/5.0 (X11; Linux x86_64) AppleWebKit/537.36 (KHTML, like Gecko) draw.io/26.0.16 Chrome/132.0.6834.196 Electron/34.2.0 Safari/537.36" version="26.0.16" pages="2">
  <diagram id="TGR3lzgZ5ieuYXsnNQgb" name="current">
    <mxGraphModel dx="2440" dy="1407" grid="1" gridSize="10" guides="1" tooltips="1" connect="1" arrows="1" fold="1" page="1" pageScale="1" pageWidth="2336" pageHeight="1654" math="0" shadow="0">
      <root>
        <mxCell id="0" />
        <mxCell id="1" parent="0" />
        <mxCell id="EwGL88WWKU1whxViD9Ro-1" value="&lt;font style=&quot;font-size: 36px;&quot;&gt;Ubuntu 24.04&lt;br&gt;(noble)&lt;/font&gt;" style="rounded=1;whiteSpace=wrap;html=1;" parent="1" vertex="1">
          <mxGeometry x="120" y="240" width="240" height="80" as="geometry" />
        </mxCell>
        <mxCell id="EwGL88WWKU1whxViD9Ro-4" value="&lt;font style=&quot;font-size: 36px;&quot;&gt;osrf/ros2&lt;br&gt;(jazzy)&lt;/font&gt;" style="rounded=1;whiteSpace=wrap;html=1;" parent="1" vertex="1">
          <mxGeometry x="120" y="400" width="240" height="80" as="geometry" />
        </mxCell>
        <mxCell id="jRsuxW81R862TbModPDu-1" value="&lt;font style=&quot;font-size: 36px;&quot;&gt;osrf/ros2&lt;br&gt;(jazzy)&lt;/font&gt;" style="rounded=1;whiteSpace=wrap;html=1;" parent="1" vertex="1">
          <mxGeometry x="120" y="855" width="240" height="80" as="geometry" />
        </mxCell>
        <mxCell id="jRsuxW81R862TbModPDu-2" value="&lt;font style=&quot;font-size: 48px;&quot;&gt;Dockerfile Pipeline Architecture&lt;/font&gt;" style="text;html=1;align=center;verticalAlign=middle;whiteSpace=wrap;rounded=0;" parent="1" vertex="1">
          <mxGeometry x="432" y="40" width="790" height="30" as="geometry" />
        </mxCell>
        <mxCell id="jRsuxW81R862TbModPDu-3" value="&lt;font style=&quot;&quot;&gt;&lt;font style=&quot;font-size: 24px;&quot;&gt;Dev Tools&lt;br&gt;(C++ / Python)&lt;/font&gt;&lt;br&gt;&lt;/font&gt;" style="rounded=1;whiteSpace=wrap;html=1;fillColor=#1ba1e2;strokeColor=#006EAF;fontColor=#ffffff;" parent="1" vertex="1">
          <mxGeometry x="560" y="240" width="280" height="240" as="geometry" />
        </mxCell>
        <mxCell id="jRsuxW81R862TbModPDu-4" value="&lt;font style=&quot;font-size: 24px;&quot;&gt;OpenCV (C++)&lt;br&gt;OpenCV (Python)&lt;br&gt;GStreamer&lt;br&gt;Contrib&lt;/font&gt;" style="rounded=1;whiteSpace=wrap;html=1;fillColor=#1ba1e2;strokeColor=#006EAF;fontColor=#ffffff;" parent="1" vertex="1">
          <mxGeometry x="1480" y="240" width="250" height="240" as="geometry" />
        </mxCell>
        <mxCell id="jRsuxW81R862TbModPDu-5" value="&lt;font style=&quot;font-size: 48px;&quot;&gt;amd64/arm64&lt;/font&gt;" style="text;html=1;align=center;verticalAlign=middle;whiteSpace=wrap;rounded=0;rotation=-90;" parent="1" vertex="1">
          <mxGeometry x="-90" y="405" width="330" height="70" as="geometry" />
        </mxCell>
        <mxCell id="jRsuxW81R862TbModPDu-6" value="&lt;span style=&quot;font-size: 48px;&quot;&gt;jetson&lt;/span&gt;" style="text;html=1;align=center;verticalAlign=middle;whiteSpace=wrap;rounded=0;rotation=-90;" parent="1" vertex="1">
          <mxGeometry y="860" width="150" height="70" as="geometry" />
        </mxCell>
        <mxCell id="jRsuxW81R862TbModPDu-8" value="&lt;font style=&quot;font-size: 48px;&quot;&gt;Base Images&lt;/font&gt;" style="text;html=1;align=center;verticalAlign=middle;whiteSpace=wrap;rounded=0;rotation=0;" parent="1" vertex="1">
          <mxGeometry x="63.75" y="110" width="352.5" height="70" as="geometry" />
        </mxCell>
        <mxCell id="jRsuxW81R862TbModPDu-10" value="&lt;font style=&quot;font-size: 48px;&quot;&gt;Base Images (1)&lt;/font&gt;" style="text;html=1;align=center;verticalAlign=middle;whiteSpace=wrap;rounded=0;rotation=0;" parent="1" vertex="1">
          <mxGeometry x="978" y="110" width="380" height="70" as="geometry" />
        </mxCell>
        <mxCell id="jRsuxW81R862TbModPDu-11" value="&lt;font style=&quot;font-size: 36px;&quot;&gt;amidg/ros2&lt;br&gt;&lt;/font&gt;" style="rounded=1;whiteSpace=wrap;html=1;fillColor=#008a00;strokeColor=#005700;fontColor=#ffffff;" parent="1" vertex="1">
          <mxGeometry x="1048" y="400" width="240" height="80" as="geometry" />
        </mxCell>
        <mxCell id="jRsuxW81R862TbModPDu-12" value="&lt;font style=&quot;font-size: 36px;&quot;&gt;amidg/cv&lt;br&gt;&lt;/font&gt;" style="rounded=1;whiteSpace=wrap;html=1;fillColor=#008a00;strokeColor=#005700;fontColor=#ffffff;" parent="1" vertex="1">
          <mxGeometry x="1920" y="240" width="240" height="80" as="geometry" />
        </mxCell>
        <mxCell id="jRsuxW81R862TbModPDu-13" value="&lt;font style=&quot;font-size: 36px;&quot;&gt;amidg/dev&lt;/font&gt;" style="rounded=1;whiteSpace=wrap;html=1;fillColor=#008a00;strokeColor=#005700;fontColor=#ffffff;" parent="1" vertex="1">
          <mxGeometry x="1048" y="240" width="240" height="80" as="geometry" />
        </mxCell>
        <mxCell id="jRsuxW81R862TbModPDu-14" value="&lt;font style=&quot;font-size: 36px;&quot;&gt;amidg/ros2_cv&lt;br&gt;&lt;/font&gt;" style="rounded=1;whiteSpace=wrap;html=1;fillColor=#008a00;strokeColor=#005700;fontColor=#ffffff;" parent="1" vertex="1">
          <mxGeometry x="1920" y="400" width="240" height="80" as="geometry" />
        </mxCell>
        <mxCell id="jRsuxW81R862TbModPDu-15" value="" style="endArrow=classic;html=1;rounded=0;entryX=0;entryY=0.25;entryDx=0;entryDy=0;exitX=1;exitY=0.5;exitDx=0;exitDy=0;strokeWidth=3;" parent="1" source="EwGL88WWKU1whxViD9Ro-1" target="jRsuxW81R862TbModPDu-3" edge="1">
          <mxGeometry width="50" height="50" relative="1" as="geometry">
            <mxPoint x="890" y="590" as="sourcePoint" />
            <mxPoint x="940" y="540" as="targetPoint" />
          </mxGeometry>
        </mxCell>
        <mxCell id="jRsuxW81R862TbModPDu-16" value="" style="endArrow=classic;html=1;rounded=0;entryX=0;entryY=0.5;entryDx=0;entryDy=0;exitX=1;exitY=0.25;exitDx=0;exitDy=0;strokeWidth=3;" parent="1" source="jRsuxW81R862TbModPDu-3" target="jRsuxW81R862TbModPDu-13" edge="1">
          <mxGeometry width="50" height="50" relative="1" as="geometry">
            <mxPoint x="400" y="290" as="sourcePoint" />
            <mxPoint x="530" y="290" as="targetPoint" />
          </mxGeometry>
        </mxCell>
        <mxCell id="jRsuxW81R862TbModPDu-30" value="&lt;font style=&quot;font-size: 48px;&quot;&gt;Final Images (2)&lt;/font&gt;" style="text;html=1;align=center;verticalAlign=middle;whiteSpace=wrap;rounded=0;rotation=0;" parent="1" vertex="1">
          <mxGeometry x="1890" y="110" width="360" height="70" as="geometry" />
        </mxCell>
        <mxCell id="6f5iHO7AI6VfLhUQih7Z-1" value="" style="endArrow=classic;html=1;rounded=0;entryX=0;entryY=0.75;entryDx=0;entryDy=0;exitX=1;exitY=0.5;exitDx=0;exitDy=0;strokeWidth=3;" edge="1" parent="1" source="EwGL88WWKU1whxViD9Ro-4" target="jRsuxW81R862TbModPDu-3">
          <mxGeometry width="50" height="50" relative="1" as="geometry">
            <mxPoint x="390" y="530" as="sourcePoint" />
            <mxPoint x="610" y="550" as="targetPoint" />
          </mxGeometry>
        </mxCell>
        <mxCell id="6f5iHO7AI6VfLhUQih7Z-2" value="" style="endArrow=classic;html=1;rounded=0;entryX=0;entryY=0.5;entryDx=0;entryDy=0;exitX=1;exitY=0.75;exitDx=0;exitDy=0;strokeWidth=3;" edge="1" parent="1" source="jRsuxW81R862TbModPDu-3" target="jRsuxW81R862TbModPDu-11">
          <mxGeometry width="50" height="50" relative="1" as="geometry">
            <mxPoint x="880" y="540" as="sourcePoint" />
            <mxPoint x="1108" y="520" as="targetPoint" />
          </mxGeometry>
        </mxCell>
        <mxCell id="6f5iHO7AI6VfLhUQih7Z-3" value="" style="endArrow=classic;html=1;rounded=0;entryX=0;entryY=0.25;entryDx=0;entryDy=0;exitX=1;exitY=0.5;exitDx=0;exitDy=0;strokeWidth=3;" edge="1" parent="1" source="jRsuxW81R862TbModPDu-13" target="jRsuxW81R862TbModPDu-4">
          <mxGeometry width="50" height="50" relative="1" as="geometry">
            <mxPoint x="1260" y="630" as="sourcePoint" />
            <mxPoint x="1468" y="610" as="targetPoint" />
          </mxGeometry>
        </mxCell>
      </root>
    </mxGraphModel>
  </diagram>
  <diagram name="original" id="_UJ7m5SGhpss_lcpkJAT">
    <mxGraphModel dx="2074" dy="1196" grid="1" gridSize="10" guides="1" tooltips="1" connect="1" arrows="1" fold="1" page="1" pageScale="1" pageWidth="1654" pageHeight="1169" math="0" shadow="0">
      <root>
        <mxCell id="Bu5mh3538iYJmPLU_VUD-0" />
        <mxCell id="Bu5mh3538iYJmPLU_VUD-1" parent="Bu5mh3538iYJmPLU_VUD-0" />
        <mxCell id="Bu5mh3538iYJmPLU_VUD-2" value="&lt;font style=&quot;font-size: 36px;&quot;&gt;Ubuntu 24.04&lt;/font&gt;" style="rounded=1;whiteSpace=wrap;html=1;" vertex="1" parent="Bu5mh3538iYJmPLU_VUD-1">
          <mxGeometry x="160" y="200" width="240" height="80" as="geometry" />
        </mxCell>
        <mxCell id="Bu5mh3538iYJmPLU_VUD-3" value="" style="endArrow=classic;html=1;rounded=0;fontSize=36;entryX=0;entryY=0.25;entryDx=0;entryDy=0;exitX=1;exitY=0.5;exitDx=0;exitDy=0;" edge="1" parent="Bu5mh3538iYJmPLU_VUD-1" source="Bu5mh3538iYJmPLU_VUD-2" target="Bu5mh3538iYJmPLU_VUD-9">
          <mxGeometry width="50" height="50" relative="1" as="geometry">
            <mxPoint x="250" y="380" as="sourcePoint" />
            <mxPoint x="300" y="330" as="targetPoint" />
          </mxGeometry>
        </mxCell>
        <mxCell id="Bu5mh3538iYJmPLU_VUD-4" value="&lt;font style=&quot;font-size: 36px;&quot;&gt;FastDDS&lt;br&gt;&lt;/font&gt;" style="rounded=1;whiteSpace=wrap;html=1;" vertex="1" parent="Bu5mh3538iYJmPLU_VUD-1">
          <mxGeometry x="800" y="40" width="240" height="80" as="geometry" />
        </mxCell>
        <mxCell id="Bu5mh3538iYJmPLU_VUD-5" value="&lt;font style=&quot;font-size: 36px;&quot;&gt;ROS2&lt;br&gt;&lt;/font&gt;" style="rounded=1;whiteSpace=wrap;html=1;fillColor=#dae8fc;strokeColor=#6c8ebf;" vertex="1" parent="Bu5mh3538iYJmPLU_VUD-1">
          <mxGeometry x="800" y="360" width="240" height="80" as="geometry" />
        </mxCell>
        <mxCell id="Bu5mh3538iYJmPLU_VUD-6" value="" style="endArrow=classic;html=1;rounded=0;fontSize=36;entryX=0;entryY=0.5;entryDx=0;entryDy=0;exitX=1;exitY=0.5;exitDx=0;exitDy=0;" edge="1" parent="Bu5mh3538iYJmPLU_VUD-1" source="Bu5mh3538iYJmPLU_VUD-2" target="Bu5mh3538iYJmPLU_VUD-13">
          <mxGeometry width="50" height="50" relative="1" as="geometry">
            <mxPoint x="720" y="240" as="sourcePoint" />
            <mxPoint x="810" y="130" as="targetPoint" />
          </mxGeometry>
        </mxCell>
        <mxCell id="Bu5mh3538iYJmPLU_VUD-7" value="&lt;font style=&quot;font-size: 36px;&quot;&gt;OpenCV&lt;br&gt;(Contrib + Python + GPU + GStreamer)&lt;br&gt;&lt;/font&gt;" style="rounded=1;whiteSpace=wrap;html=1;fillColor=#dae8fc;strokeColor=#6c8ebf;" vertex="1" parent="Bu5mh3538iYJmPLU_VUD-1">
          <mxGeometry x="800" y="680" width="240" height="200" as="geometry" />
        </mxCell>
        <mxCell id="Bu5mh3538iYJmPLU_VUD-8" value="&lt;font style=&quot;font-size: 36px;&quot;&gt;Ubuntu 24.04 + CUDA&lt;/font&gt;" style="rounded=1;whiteSpace=wrap;html=1;" vertex="1" parent="Bu5mh3538iYJmPLU_VUD-1">
          <mxGeometry x="160" y="520" width="240" height="80" as="geometry" />
        </mxCell>
        <mxCell id="Bu5mh3538iYJmPLU_VUD-9" value="&lt;font style=&quot;font-size: 36px;&quot;&gt;Dev Tools&lt;br&gt;(C++ / Python)&lt;br&gt;&lt;/font&gt;" style="rounded=1;whiteSpace=wrap;html=1;fillColor=#dae8fc;strokeColor=#6c8ebf;" vertex="1" parent="Bu5mh3538iYJmPLU_VUD-1">
          <mxGeometry x="480" y="360" width="240" height="80" as="geometry" />
        </mxCell>
        <mxCell id="Bu5mh3538iYJmPLU_VUD-10" value="" style="endArrow=classic;html=1;rounded=0;fontSize=36;entryX=0;entryY=0.75;entryDx=0;entryDy=0;exitX=1;exitY=0.5;exitDx=0;exitDy=0;" edge="1" parent="Bu5mh3538iYJmPLU_VUD-1" source="Bu5mh3538iYJmPLU_VUD-8" target="Bu5mh3538iYJmPLU_VUD-9">
          <mxGeometry width="50" height="50" relative="1" as="geometry">
            <mxPoint x="410" y="250" as="sourcePoint" />
            <mxPoint x="490" y="390" as="targetPoint" />
          </mxGeometry>
        </mxCell>
        <mxCell id="Bu5mh3538iYJmPLU_VUD-11" value="&lt;font style=&quot;font-size: 24px;&quot;&gt;Bundle these as script&lt;/font&gt;" style="text;html=1;strokeColor=none;fillColor=none;align=center;verticalAlign=middle;whiteSpace=wrap;rounded=0;fontSize=36;" vertex="1" parent="Bu5mh3538iYJmPLU_VUD-1">
          <mxGeometry x="200" y="370" width="250" height="60" as="geometry" />
        </mxCell>
        <mxCell id="Bu5mh3538iYJmPLU_VUD-12" value="" style="endArrow=classic;html=1;rounded=0;fontSize=36;entryX=0;entryY=0.5;entryDx=0;entryDy=0;exitX=1;exitY=0.5;exitDx=0;exitDy=0;" edge="1" parent="Bu5mh3538iYJmPLU_VUD-1" source="Bu5mh3538iYJmPLU_VUD-9" target="Bu5mh3538iYJmPLU_VUD-5">
          <mxGeometry width="50" height="50" relative="1" as="geometry">
            <mxPoint x="410" y="250" as="sourcePoint" />
            <mxPoint x="810" y="250" as="targetPoint" />
          </mxGeometry>
        </mxCell>
        <mxCell id="Bu5mh3538iYJmPLU_VUD-13" value="&lt;font style=&quot;font-size: 36px;&quot;&gt;ROS2&lt;br&gt;&lt;/font&gt;" style="rounded=1;whiteSpace=wrap;html=1;fillColor=#d5e8d4;strokeColor=#82b366;" vertex="1" parent="Bu5mh3538iYJmPLU_VUD-1">
          <mxGeometry x="800" y="200" width="240" height="80" as="geometry" />
        </mxCell>
        <mxCell id="Bu5mh3538iYJmPLU_VUD-14" value="" style="endArrow=classic;html=1;rounded=0;fontSize=36;entryX=0.5;entryY=1;entryDx=0;entryDy=0;exitX=0.5;exitY=0;exitDx=0;exitDy=0;" edge="1" parent="Bu5mh3538iYJmPLU_VUD-1" source="Bu5mh3538iYJmPLU_VUD-5" target="Bu5mh3538iYJmPLU_VUD-13">
          <mxGeometry width="50" height="50" relative="1" as="geometry">
            <mxPoint x="730" y="410" as="sourcePoint" />
            <mxPoint x="810" y="410" as="targetPoint" />
          </mxGeometry>
        </mxCell>
        <mxCell id="Bu5mh3538iYJmPLU_VUD-15" value="&lt;font style=&quot;font-size: 36px;&quot;&gt;ROS2-NVDA&lt;br&gt;&lt;/font&gt;" style="rounded=1;whiteSpace=wrap;html=1;fillColor=#d5e8d4;strokeColor=#82b366;" vertex="1" parent="Bu5mh3538iYJmPLU_VUD-1">
          <mxGeometry x="800" y="520" width="240" height="80" as="geometry" />
        </mxCell>
        <mxCell id="Bu5mh3538iYJmPLU_VUD-16" value="" style="endArrow=classic;html=1;rounded=0;fontSize=36;entryX=0.5;entryY=0;entryDx=0;entryDy=0;exitX=0.5;exitY=1;exitDx=0;exitDy=0;" edge="1" parent="Bu5mh3538iYJmPLU_VUD-1" source="Bu5mh3538iYJmPLU_VUD-5" target="Bu5mh3538iYJmPLU_VUD-15">
          <mxGeometry width="50" height="50" relative="1" as="geometry">
            <mxPoint x="930" y="370" as="sourcePoint" />
            <mxPoint x="930" y="290" as="targetPoint" />
          </mxGeometry>
        </mxCell>
        <mxCell id="Bu5mh3538iYJmPLU_VUD-17" value="" style="endArrow=classic;html=1;rounded=0;fontSize=36;entryX=0;entryY=0.5;entryDx=0;entryDy=0;exitX=1;exitY=0.5;exitDx=0;exitDy=0;" edge="1" parent="Bu5mh3538iYJmPLU_VUD-1" source="Bu5mh3538iYJmPLU_VUD-8" target="Bu5mh3538iYJmPLU_VUD-15">
          <mxGeometry width="50" height="50" relative="1" as="geometry">
            <mxPoint x="410" y="570" as="sourcePoint" />
            <mxPoint x="490" y="430" as="targetPoint" />
          </mxGeometry>
        </mxCell>
        <mxCell id="Bu5mh3538iYJmPLU_VUD-18" value="" style="endArrow=classic;html=1;rounded=0;fontSize=24;exitX=0.5;exitY=1;exitDx=0;exitDy=0;entryX=0;entryY=0.5;entryDx=0;entryDy=0;" edge="1" parent="Bu5mh3538iYJmPLU_VUD-1" source="Bu5mh3538iYJmPLU_VUD-9" target="Bu5mh3538iYJmPLU_VUD-7">
          <mxGeometry width="50" height="50" relative="1" as="geometry">
            <mxPoint x="660" y="610" as="sourcePoint" />
            <mxPoint x="710" y="560" as="targetPoint" />
            <Array as="points">
              <mxPoint x="600" y="780" />
            </Array>
          </mxGeometry>
        </mxCell>
        <mxCell id="Bu5mh3538iYJmPLU_VUD-19" value="&lt;font style=&quot;font-size: 36px;&quot;&gt;DepthPro&lt;br&gt;&lt;/font&gt;" style="rounded=1;whiteSpace=wrap;html=1;fillColor=#d5e8d4;strokeColor=#82b366;" vertex="1" parent="Bu5mh3538iYJmPLU_VUD-1">
          <mxGeometry x="1120" y="960" width="240" height="80" as="geometry" />
        </mxCell>
        <mxCell id="Bu5mh3538iYJmPLU_VUD-20" value="" style="endArrow=classic;html=1;rounded=0;fontSize=24;exitX=0.5;exitY=1;exitDx=0;exitDy=0;entryX=0;entryY=0.5;entryDx=0;entryDy=0;" edge="1" parent="Bu5mh3538iYJmPLU_VUD-1" source="Bu5mh3538iYJmPLU_VUD-7" target="Bu5mh3538iYJmPLU_VUD-19">
          <mxGeometry width="50" height="50" relative="1" as="geometry">
            <mxPoint x="610" y="450" as="sourcePoint" />
            <mxPoint x="810" y="790" as="targetPoint" />
            <Array as="points">
              <mxPoint x="920" y="1000" />
            </Array>
          </mxGeometry>
        </mxCell>
        <mxCell id="Bu5mh3538iYJmPLU_VUD-21" value="&lt;font style=&quot;font-size: 24px;&quot;&gt;Bundle these as script&lt;/font&gt;" style="text;html=1;strokeColor=none;fillColor=none;align=center;verticalAlign=middle;whiteSpace=wrap;rounded=0;fontSize=36;" vertex="1" parent="Bu5mh3538iYJmPLU_VUD-1">
          <mxGeometry x="540" y="790" width="250" height="60" as="geometry" />
        </mxCell>
      </root>
    </mxGraphModel>
  </diagram>
</mxfile>
